# Blender v2.76 (sub 0) OBJ File: 'Common.blend'
# www.blender.org
o SawdustHeap_Cube.228
v 0.346141 -0.026282 1.213248
v -0.346141 -0.026282 1.213248
v 0.346141 -0.026282 -1.214873
v -0.346141 -0.026282 -1.214873
v 0.115380 -0.000000 1.213248
v -0.115380 -0.000000 1.213248
v 0.115380 0.000000 -1.214873
v -0.115380 0.000000 -1.214873
v 0.346141 0.000000 -0.810186
v 0.346141 0.000000 -0.405499
v 0.346141 -0.026282 -0.000812
v 0.346141 -0.000000 0.403875
v 0.346141 -0.000000 0.808562
v -0.346141 -0.000000 0.808562
v -0.346141 -0.000000 0.403875
v -0.346141 -0.026282 -0.000812
v -0.346141 0.000000 -0.405499
v -0.346141 0.000000 -0.810186
v 0.093633 0.174232 -0.772047
v 0.093633 0.174232 -0.443637
v 0.115380 0.000000 -0.000812
v 0.093633 0.174232 0.442013
v 0.093633 0.174232 0.770423
v -0.093633 0.174232 -0.772047
v -0.093633 0.174232 -0.443637
v -0.115380 0.000000 -0.000812
v -0.093633 0.174232 0.442013
v -0.093633 0.174232 0.770423
vt 0.125000 0.125000
vn -0.240900 0.959700 -0.144800
vn -0.191800 0.938100 -0.288400
vn -0.361100 0.909500 -0.205900
vn -0.460600 0.880300 -0.113500
vn 0.460600 0.880300 -0.113500
vn 0.361100 0.909500 -0.205900
vn 0.191800 0.938100 -0.288400
vn 0.240900 0.959700 -0.144800
vn 0.191800 0.938100 0.288400
vn 0.240900 0.959700 0.144800
vn -0.240900 0.959700 0.144800
vn -0.191800 0.938100 0.288400
vn 0.200400 0.979700 0.000000
vn -0.200400 0.979700 0.000000
vn 0.361100 0.909500 0.205900
vn 0.460600 0.880300 0.113500
vn 0.369000 0.929400 0.000000
vn -0.460600 0.880300 0.113500
vn -0.361100 0.909500 0.205900
vn -0.369000 0.929400 0.000000
s 1
f 24/1/1 8/1/2 4/1/3 18/1/4
f 9/1/5 3/1/6 7/1/7 19/1/8
f 19/1/8 7/1/7 8/1/2 24/1/1
f 5/1/9 23/1/10 28/1/11 6/1/12
f 23/1/10 22/1/8 27/1/1 28/1/11
f 22/1/8 21/1/13 26/1/14 27/1/1
f 21/1/13 20/1/10 25/1/11 26/1/14
f 20/1/10 19/1/8 24/1/1 25/1/11
f 1/1/15 13/1/16 23/1/10 5/1/9
f 13/1/16 12/1/5 22/1/8 23/1/10
f 12/1/5 11/1/17 21/1/13 22/1/8
f 11/1/17 10/1/16 20/1/10 21/1/13
f 10/1/16 9/1/5 19/1/8 20/1/10
f 6/1/12 28/1/11 14/1/18 2/1/19
f 28/1/11 27/1/1 15/1/4 14/1/18
f 27/1/1 26/1/14 16/1/20 15/1/4
f 26/1/14 25/1/11 17/1/18 16/1/20
f 25/1/11 24/1/1 18/1/4 17/1/18
